<?xml version="1.0" encoding="utf-8"?>
<!-- Generator: Adobe Illustrator 28.1.0, SVG Export Plug-In . SVG Version: 6.00 Build 0)  -->
<svg version="1.1" id="Capa_2_00000067237285234377064650000000548187551930032786_"
	 xmlns="http://www.w3.org/2000/svg" xmlns:xlink="http://www.w3.org/1999/xlink" x="0px" y="0px" viewBox="0 0 698 653.6"
	 style="enable-background:new 0 0 698 653.6;" xml:space="preserve">
<style type="text/css">
	.st0{fill:#FFFFFF;stroke:#000000;stroke-miterlimit:10;}
	.st1{fill:#1B274B;}
	.st2{fill-rule:evenodd;clip-rule:evenodd;fill:#1B274B;}
	.st3{fill:#5DDBC6;}
	.st4{fill:#D3BE29;}
	.st5{fill:#45BAFF;}
</style>
<rect class="st0" width="698" height="653.6"/>
<g id="Capa_7">
	<path class="st1" d="M531.5,298.6c0,1.6,1.3,2.9,2.9,2.9c1.6,0,2.9-1.3,2.9-2.9c0-5.5-4.5-9.9-9.9-9.9s-9.9,4.5-9.9,9.9
		c0,1.6,1.3,2.9,2.9,2.9c1.6,0,2.9-1.3,2.9-2.9c0-2.3,1.9-4.2,4.2-4.2C529.7,294.4,531.5,296.3,531.5,298.6L531.5,298.6z"/>
	<path class="st1" d="M488,301.4c1.6,0,2.9-1.3,2.9-2.9c0-2.3,1.9-4.2,4.2-4.2s4.2,1.9,4.2,4.2c0,1.6,1.3,2.9,2.9,2.9
		s2.9-1.3,2.9-2.9c0-5.5-4.5-9.9-9.9-9.9s-9.9,4.4-9.9,9.9C485.1,300.2,486.4,301.4,488,301.4L488,301.4z"/>
	<path class="st1" d="M555.7,427.8c1.4-1.1,1.6-3.2,0.5-4.6c-3-3.6-7-5.3-10.7-6.1c0.8-0.6,1.3-0.9,1.3-0.9c1.5-1,1.8-3.1,0.8-4.6
		c-0.6-0.9-1.6-1.4-2.7-1.4c-0.7,0-1.3,0.2-1.9,0.6c-0.3,0.2-6.6,4.7-9,6.7c-1.1,1-1.5,2.5-0.9,3.9c0.6,1.2,1.7,1.9,3,1.9
		c0.2,0,0.3,0,0.5,0c0,0,1.3-0.2,3.1-0.2c3.3,0,8.4,0.6,11.4,4.3c0.6,0.8,1.6,1.2,2.5,1.2C554.4,428.6,555.1,428.3,555.7,427.8
		L555.7,427.8z"/>
	<path class="st1" d="M523.6,457.4c-15.5,0-23.3-16.6-23.3-16.7c-0.2-0.7,0-1.5,0.6-1.9c0.6-0.4,18.2-2.6,22.7-2.6
		s22.2,2.2,22.7,2.6c0.6,0.4,0.8,1.2,0.6,1.9C547,440.8,539.2,457.4,523.6,457.4L523.6,457.4z"/>
	<path class="st1" d="M493.6,428.5c-0.7,0-1.5-0.2-2.1-0.7c-1.4-1.1-1.6-3.2-0.5-4.6c3-3.6,7-5.3,10.7-6.1c-0.8-0.5-1.3-0.9-1.3-0.9
		c-1.5-1-1.8-3.1-0.8-4.6c1-1.5,3.1-1.8,4.6-0.8c0.3,0.2,6.6,4.7,9,6.7c1.1,1,1.5,2.5,0.8,3.9c-0.6,1.3-2,2.1-3.5,1.9
		c-0.1,0-9.9-1.5-14.5,4.1C495.5,428.1,494.6,428.6,493.6,428.5L493.6,428.5z"/>
	<circle class="st1" cx="276.1" cy="240.2" r="14.1"/>
	<path class="st2" d="M290.3,272.3c-4.1-0.2-7,2.6-7.1,5.6c-0.5,13.4,11.5,23.8,29.2,23.8s29.7-10.5,29.2-23.8
		c-0.1-3.1-3-5.8-7.1-5.6c-0.6,0-1.2,0.1-1.9,0.3c-11.3,2.6-15.5,3-20.2,3c-4.7,0-8.8-0.4-20.2-3
		C291.5,272.4,290.8,272.3,290.3,272.3L290.3,272.3z"/>
	
		<ellipse transform="matrix(0.9975 -7.084510e-02 7.084510e-02 0.9975 -16.1684 24.5442)" class="st1" cx="337.9" cy="240.2" rx="14.1" ry="14.1"/>
	<path class="st3" d="M229.4,154.2H83v361.5h146.4c99.8,0,180.7-80.9,180.7-180.7l0,0C410.2,235.1,329.2,154.2,229.4,154.2
		L229.4,154.2z M229.4,481.8H116.8V187.9h112.6c36,0,68.9,13,94.5,34.6c3.9-3.1,8.7-4.9,14-4.9c12.5,0,22.6,10.1,22.6,22.6
		c0,6.4-2.7,12.1-7,16.3c14.4,22.7,22.8,49.6,22.8,78.4C376.3,415.9,310.4,481.8,229.4,481.8L229.4,481.8z"/>
	<path class="st1" d="M401.7,212h-7.3v-31.9c0-23.2-17.2-42.1-38.2-42.1H241.7c-21.1,0-38.2,18.9-38.2,42.1V212h-7.3
		c-8.5,0-15.4,6.9-15.4,15.4v42.9c0,8.5,6.9,15.4,15.4,15.4h26.2c8.5,0,15.4-6.9,15.4-15.4v-42.9c0-8.5-6.9-15.4-15.4-15.4h-7.6
		v-31.9c0-17,12.1-30.8,27-30.8h114.5c14.9,0,27,13.8,27,30.8V212h-7.7c-3.9,0-7.4,1.5-10.1,3.8c2.5,2.8,4.9,5.7,7.2,8.7
		c0.8-0.8,1.8-1.3,3-1.3h26.2c2.3,0,4.1,1.8,4.1,4.1v42.9c0,2.3-1.8,4.1-4.1,4.1h-2c1.3,3.7,2.5,7.4,3.5,11.2
		c7.7-0.8,13.8-7.3,13.8-15.3v-42.9C417.1,218.9,410.2,212,401.7,212L401.7,212z M222.3,223.3c2.3,0,4.1,1.8,4.1,4.1v42.9
		c0,2.3-1.8,4.1-4.1,4.1h-26.2c-2.3,0-4.1-1.8-4.1-4.1v-42.9c0-2.3,1.8-4.1,4.1-4.1C196.1,223.3,222.3,223.3,222.3,223.3z"/>
	<path class="st1" d="M517.5,325.5c-0.8-2.1-2.9-3.5-5.3-3.5c-2.4,0-4.4,1.5-5.3,3.5c-3.7,1.9-6.3,5.8-6.3,10.2
		c0,6.4,5.2,11.6,11.6,11.6c6.4,0,11.6-5.2,11.6-11.6C523.8,331.2,521.2,327.4,517.5,325.5L517.5,325.5z M512.2,341.6
		c-3.2,0-5.9-2.6-5.9-5.9c0-1.6,0.7-3.1,1.8-4.2c1,1.1,2.5,1.8,4.1,1.8s3.1-0.7,4.1-1.8c1.1,1.1,1.7,2.5,1.7,4.2
		C518,339,515.4,341.6,512.2,341.6L512.2,341.6z"/>
	<path class="st1" d="M533.8,320.1c-1.8-5.4-7.8-7.2-11.5-5.7c-4.5,1.8-10.1,2-10.1,2s-5.6-0.2-10.1-2c-3.7-1.4-9.7,0.4-11.5,5.7
		c-1,3.1-1.9,11.5,6.5,15.1c0.2-5.1,2.9-9.7,7.3-12.3c1.6-2.8,4.5-4.5,7.8-4.5c3.3,0,6.2,1.8,7.8,4.5c4.4,2.6,7,7.2,7.3,12.3
		C535.7,331.6,534.8,323.2,533.8,320.1L533.8,320.1z"/>
	<path class="st1" d="M530.3,354.6c-3,2.3-6.3,4.2-9.8,5.8c1.6,1.7,4,5.4,5.8,11.9c1.9,6.8,2.6,15.2,1.3,24c2,1.3,4,2.6,5.9,4
		c0.4-0.3,0.7-0.5,1.1-0.8l0.3-0.2c1.2-0.9,2.6-1.5,3.9-2c1.6-11.8,0.2-22.9-2.7-31.2C534.5,361.4,532.5,357.5,530.3,354.6
		L530.3,354.6z"/>
	<path class="st1" d="M606.8,471.1l-9.7,10.4c-2,2.2-4.7,3.4-7.6,3.4H435.3c-3.3,0-6.3-1.3-8.6-3.6L416.2,471l-8,8l10.4,10.4
		c4.4,4.4,10.3,6.9,16.6,6.9h14.4c-0.7,1.6-1,3.4-1,5.2c0,7.8,6.3,14.1,14.1,14.1s14.1-6.3,14.1-14.1c0-1.9-0.4-3.6-1-5.2h71.7
		c-0.7,1.6-1,3.4-1,5.2c0,7.8,6.3,14.1,14.1,14.1s14.1-6.3,14.1-14.1c0-1.9-0.4-3.6-1-5.2h15.9c5.9,0,11.7-2.6,15.8-7l9.7-10.4
		L606.8,471.1L606.8,471.1z M462.8,504.3c-1.5,0-2.8-1.3-2.8-2.8s1.3-2.8,2.8-2.8s2.8,1.3,2.8,2.8S464.3,504.3,462.8,504.3z
		 M560.6,504.3c-1.5,0-2.8-1.3-2.8-2.8s1.3-2.8,2.8-2.8s2.8,1.3,2.8,2.8S562.1,504.3,560.6,504.3z"/>
	<path class="st4" d="M565.9,437.6c6.3-6.2,6.9-16.4,1.2-23.3c-1.6-1.9-3.4-3.6-5.4-5.1c-0.5-2-1.4-4-2.7-5.7
		c-3.2-4.5-8.5-7.3-14.1-7.3l0,0c-3.6,0-7.1,1.1-10,3.2l-0.3,0.2c-0.4,0.3-0.7,0.5-1.1,0.8c-11.8-8.6-25.3-14.8-40-18.1
		c-0.1,3.6-0.3,7.3-0.7,11.1c15.5,3.1,28.9,9.6,39.8,18.2c0.2-0.1,0.4-0.3,0.6-0.5c0,0,0.1,0,0.1-0.1l0,0c0.7-0.5,1.5-1.1,2.3-1.7
		c0.3-0.2,0.6-0.4,0.9-0.6c1-0.8,2.1-1.5,3-2.2l0.2-0.2c1.5-1.1,3.3-1.6,5.1-1.6l0,0c2.9,0,5.6,1.4,7.2,3.7c1.2,1.7,1.8,3.7,1.6,5.8
		c2.6,1.4,4.9,3.3,6.8,5.5c2.4,3,2.6,7,0.8,10.1c-0.3,0.4-0.5,0.9-0.9,1.3c-0.4,0.4-0.7,0.8-1.1,1.1c-0.3,0.2-0.5,0.4-0.8,0.5
		c-0.1,0.1-0.3,0.2-0.4,0.3c-0.7,0.4-1.5,0.7-2.3,0.9c-0.7,0.2-1.3,0.3-2,0.3c-0.2,0-0.4-0.1-0.7-0.1c7.5,12.1,11.6,25.6,11.6,38.8
		h-92.9v-35.7c-1.4-0.1-2.8-0.7-3.9-1.8c-2.1-2.3-1.9-5.9,0.4-8c1.2-1.1,2.4-2.5,3.4-4v-32.3c3.4,0,6.7,0.2,9.9,0.5
		c0.4-3.6,0.6-7.2,0.6-10.6c0-0.3,0-0.5,0-0.8c-4.2-0.5-8.4-0.7-12.7-0.7h-18.2V485h127.1C577.9,467.9,573.4,451.8,565.9,437.6
		L565.9,437.6z"/>
	<path class="st5" d="M497.8,256.4c-30.1,0-54.5,24.4-54.5,54.5c0,23.9,15.4,44.2,36.8,51.5c-0.5-1.7-1-2.8-1.5-3.2
		c-2.7-1.2-3.9-4.4-2.9-7.1c1.1-2.9,4.4-4.3,7.3-3.2c4.5,1.8,7.5,6.9,9.1,15.8c0,0.2,0,0.3,0.1,0.5c1.8,0.2,3.6,0.3,5.5,0.3
		c30.1,0,54.5-24.4,54.5-54.5S527.9,256.3,497.8,256.4L497.8,256.4z M529.7,309c4,1.3,7.8,4.3,9.4,9.3c2.5,7.6,0.5,17.7-9.7,22
		l-0.8,0.3c-2.1,7.1-8.7,12.3-16.5,12.3c-6.9,0-12.9-4.2-15.6-10.1c-17.1-0.6-30.8-14.7-30.8-31.9s14.4-32,32-32
		c7.7,0,14.7,2.7,20.3,7.3c2.6-1.9,5.8-3.1,9.3-3.1c8.6,0,15.5,7,15.5,15.6c0,4.7-3.8,8.5-8.5,8.5c-1.9,0-3.7-0.7-5.1-1.8
		C529.5,306.5,529.6,307.8,529.7,309L529.7,309z"/>
	<path class="st1" d="M472,437.3c-1.5,0-3.1-0.6-4.2-1.9c-2.1-2.3-1.9-5.9,0.4-8c9.5-8.5,13.8-29.5,14-46.4
		c0.1-13.4-2.4-20.5-3.6-21.9c-2.7-1.2-3.9-4.4-2.9-7.1c1.1-2.9,4.4-4.3,7.3-3.2c4.5,1.8,7.5,6.9,9.1,15.8
		c3.6,19.8-0.1,56.5-16.4,71.2C474.7,436.8,473.4,437.3,472,437.3L472,437.3z"/>
</g>
</svg>
