<?xml version="1.0" encoding="utf-8"?>
<!-- Generator: Adobe Illustrator 28.1.0, SVG Export Plug-In . SVG Version: 6.00 Build 0)  -->
<svg version="1.1" id="Capa_2_00000170977859708642332890000003707049563505419199_"
	 xmlns="http://www.w3.org/2000/svg" xmlns:xlink="http://www.w3.org/1999/xlink" x="0px" y="0px" viewBox="0 0 3235.4 650.7"
	 style="enable-background:new 0 0 3235.4 650.7;" xml:space="preserve">
<style type="text/css">
	.st0{fill:#FFFFFF;}
	.st1{clip-path:url(#SVGID_00000013158908269093780600000002880552669552092581_);}
	.st2{fill:#5DDBC6;}
	.st3{fill:#45BAFF;}
	.st4{fill:#D3BE29;}
</style>
<rect class="st0" width="3235.4" height="650.7"/>
<g id="Capa_7">
	<g>
		<g>
			<defs>
				<rect id="SVGID_1_" width="3235.4" height="650.7"/>
			</defs>
			<clipPath id="SVGID_00000003806144654973426720000013581854739583906446_">
				<use xlink:href="#SVGID_1_"  style="overflow:visible;"/>
			</clipPath>
			<g style="clip-path:url(#SVGID_00000003806144654973426720000013581854739583906446_);">
				<path class="st2" d="M2492.5,502.6c352.2,0,638.8,286.5,638.8,638.8s-286.6,638.8-638.8,638.8H2003V502.6H2492.5 M2492.5,355.7
					h-636.4V1927h636.4c433.9,0,785.7-351.8,785.7-785.7l0,0C3278.2,707.5,2926.4,355.7,2492.5,355.7L2492.5,355.7L2492.5,355.7z"/>
				<path class="st3" d="M613.6-146.3C724.1-146.3,814-56.4,814,54.1s-89.9,200.4-200.4,200.4S413.2,164.6,413.2,54.1
					S503.1-146.3,613.6-146.3 M613.6-287.4c-188.6,0-341.5,152.9-341.5,341.5S425,395.7,613.6,395.7S955.2,242.8,955.2,54.1
					S802.3-287.4,613.6-287.4L613.6-287.4L613.6-287.4z"/>
				<path class="st4" d="M2662.9-264.9c239.3,11.9,438.5,179,498.9,402.4h-498.9V-264.9 M2635.5-407.6H2521v687h801.5
					C3322.5-100,3014.9-407.6,2635.5-407.6L2635.5-407.6z"/>
			</g>
		</g>
	</g>
</g>
</svg>
