<?xml version="1.0" encoding="utf-8"?>
<!-- Generator: Adobe Illustrator 28.1.0, SVG Export Plug-In . SVG Version: 6.00 Build 0)  -->
<svg version="1.1" id="Capa_2_00000160173611132153535100000007262487096051816894_"
	 xmlns="http://www.w3.org/2000/svg" xmlns:xlink="http://www.w3.org/1999/xlink" x="0px" y="0px" viewBox="0 0 3509.4 510"
	 style="enable-background:new 0 0 3509.4 510;" xml:space="preserve">
<style type="text/css">
	.st0{fill:#FFFFFF;}
	.st1{clip-path:url(#SVGID_00000003811809049121519000000004066968848161699723_);}
	.st2{fill:#5DDBC6;}
	.st3{fill:#45BAFF;}
	.st4{fill:#D3BE29;}
</style>
<rect x="0" class="st0" width="3509.4" height="509.3"/>
<g id="Capa_7">
	<g>
		<defs>
			<rect id="SVGID_1_" width="3509.4" height="510"/>
		</defs>
		<clipPath id="SVGID_00000086690911309260668790000008850436051348161181_">
			<use xlink:href="#SVGID_1_"  style="overflow:visible;"/>
		</clipPath>
		<g style="clip-path:url(#SVGID_00000086690911309260668790000008850436051348161181_);">
			<path class="st2" d="M2881.6,442.4c276.1,0,500.6,224.6,500.6,500.6s-224.6,500.6-500.6,500.6h-383.7V442.4H2881.6 M2881.6,327.2
				h-498.8v1231.6h498.8c340.1,0,615.8-275.7,615.8-615.8l0,0C3497.4,602.9,3221.7,327.2,2881.6,327.2L2881.6,327.2L2881.6,327.2z"
				/>
			<path class="st3" d="M754-169.8c86.6,0,157.1,70.5,157.1,157.1S840.6,144.4,754,144.4S597,73.9,597-12.7S667.4-169.8,754-169.8
				 M754-280.4c-147.8,0-267.7,119.9-267.7,267.7S606.2,255,754,255s267.7-119.9,267.7-267.7S901.9-280.4,754-280.4L754-280.4
				L754-280.4z"/>
			<path class="st4" d="M2992.4-236.6c187.6,9.4,343.7,140.3,391,315.4h-391V-236.6 M2970.9-348.4h-89.7V190h628.2
				C3509.4-107.4,3268.3-348.4,2970.9-348.4L2970.9-348.4z"/>
		</g>
	</g>
</g>
</svg>
